<svg width="208" height="578" viewBox="0 0 208 578" fill="none" xmlns="http://www.w3.org/2000/svg">
<path d="M53.0881 2C45.4586 16.918 45.4136 35.8558 49.8692 51.3439C52.9342 61.9978 64.7266 75.3889 77.4231 78.3096C94.6887 82.2812 112.908 78.6173 130.471 81.3306C151.607 84.596 167.007 92.2551 182.939 104.716C197.149 115.829 211.801 135.44 203.669 153.109C201.573 157.661 200.574 163.185 197.681 167.375C194.646 171.771 189.263 175.319 185.45 179.235C177.787 187.104 168.664 192.397 157.638 196.354C141.036 202.314 123.269 206.425 105.234 206.425C95.3192 206.425 85.883 206.813 76.0711 207.935C61.6479 209.584 45.5534 209.101 31.7146 213.474C26.6598 215.071 19.2277 221.275 16.0063 224.775C7.83413 233.652 6.04744 241.048 3.83887 251.796C-0.593012 273.364 2.36837 300.532 19.5471 317.7C27.1486 325.297 43.5331 329.979 53.9894 333.085C67.5607 337.116 84.0883 336.33 98.2816 336.33C126.198 336.33 160.78 332.912 182.617 351.211C188.905 356.481 191.2 364.077 193.883 371.072C197.521 380.555 202.375 392.762 202.574 402.793C203.179 433.255 201.075 468.824 164.849 483.354C148.659 489.848 131.578 495.066 115.921 502.488C101.615 509.269 79.7463 516.999 71.0497 529.789C63.4576 540.954 61.1998 550.838 61.1998 563.468C61.1998 566.823 61.313 569.138 62.6161 572.196C63.4617 574.18 65.8738 576 65.835 576" stroke="black" stroke-width="3" stroke-linecap="round" stroke-dasharray="6 6"/>
</svg>
